<mxfile host="Electron" agent="Mozilla/5.0 (Windows NT 10.0; Win64; x64) AppleWebKit/537.36 (KHTML, like Gecko) draw.io/24.7.8 Chrome/128.0.6613.36 Electron/32.0.1 Safari/537.36" version="24.7.8" pages="3">
  <diagram name="Набросок" id="bS4lkXRMF0T8U4A8ymXz">
    <mxGraphModel dx="2062" dy="731" grid="1" gridSize="10" guides="1" tooltips="1" connect="1" arrows="1" fold="1" page="1" pageScale="1" pageWidth="827" pageHeight="1169" background="none" math="0" shadow="1">
      <root>
        <mxCell id="0" />
        <mxCell id="1" parent="0" />
        <mxCell id="GMx2qRzdEAIqp2U18zfm-14" style="edgeStyle=orthogonalEdgeStyle;rounded=0;orthogonalLoop=1;jettySize=auto;html=1;entryX=1;entryY=0.5;entryDx=0;entryDy=0;endArrow=none;endFill=0;" parent="1" source="-JJXWZEFhB59zwUmSg-g-2" target="GMx2qRzdEAIqp2U18zfm-1" edge="1">
          <mxGeometry relative="1" as="geometry" />
        </mxCell>
        <mxCell id="GMx2qRzdEAIqp2U18zfm-18" style="edgeStyle=orthogonalEdgeStyle;rounded=0;orthogonalLoop=1;jettySize=auto;html=1;exitX=0.5;exitY=1;exitDx=0;exitDy=0;endArrow=none;endFill=0;" parent="1" source="-JJXWZEFhB59zwUmSg-g-2" target="GMx2qRzdEAIqp2U18zfm-9" edge="1">
          <mxGeometry relative="1" as="geometry" />
        </mxCell>
        <mxCell id="GMx2qRzdEAIqp2U18zfm-19" style="edgeStyle=orthogonalEdgeStyle;rounded=0;orthogonalLoop=1;jettySize=auto;html=1;exitX=0;exitY=1;exitDx=0;exitDy=0;entryX=1;entryY=0.5;entryDx=0;entryDy=0;endArrow=none;endFill=0;" parent="1" source="-JJXWZEFhB59zwUmSg-g-2" target="GMx2qRzdEAIqp2U18zfm-8" edge="1">
          <mxGeometry relative="1" as="geometry">
            <Array as="points">
              <mxPoint x="-42" y="860" />
            </Array>
          </mxGeometry>
        </mxCell>
        <mxCell id="-JJXWZEFhB59zwUmSg-g-2" value="Абитуриент" style="ellipse;whiteSpace=wrap;html=1;fontStyle=1;fontSize=13;" parent="1" vertex="1">
          <mxGeometry x="-60" y="590" width="120" height="80" as="geometry" />
        </mxCell>
        <mxCell id="GMx2qRzdEAIqp2U18zfm-22" style="edgeStyle=orthogonalEdgeStyle;rounded=0;orthogonalLoop=1;jettySize=auto;html=1;exitX=0.5;exitY=0;exitDx=0;exitDy=0;entryX=0.5;entryY=1;entryDx=0;entryDy=0;endArrow=none;endFill=0;" parent="1" source="GMx2qRzdEAIqp2U18zfm-1" target="GMx2qRzdEAIqp2U18zfm-5" edge="1">
          <mxGeometry relative="1" as="geometry" />
        </mxCell>
        <mxCell id="GMx2qRzdEAIqp2U18zfm-1" value="Поступление абитуриента" style="ellipse;whiteSpace=wrap;html=1;fontStyle=1;fontSize=13;" parent="1" vertex="1">
          <mxGeometry x="-240" y="590" width="120" height="80" as="geometry" />
        </mxCell>
        <mxCell id="GMx2qRzdEAIqp2U18zfm-24" style="edgeStyle=orthogonalEdgeStyle;rounded=0;orthogonalLoop=1;jettySize=auto;html=1;exitX=0.5;exitY=0;exitDx=0;exitDy=0;entryX=1;entryY=0.5;entryDx=0;entryDy=0;endArrow=none;endFill=0;" parent="1" source="GMx2qRzdEAIqp2U18zfm-2" target="GMx2qRzdEAIqp2U18zfm-5" edge="1">
          <mxGeometry relative="1" as="geometry" />
        </mxCell>
        <mxCell id="GMx2qRzdEAIqp2U18zfm-25" style="edgeStyle=orthogonalEdgeStyle;rounded=0;orthogonalLoop=1;jettySize=auto;html=1;exitX=0.5;exitY=1;exitDx=0;exitDy=0;entryX=1;entryY=0;entryDx=0;entryDy=0;endArrow=none;endFill=0;" parent="1" source="GMx2qRzdEAIqp2U18zfm-2" target="GMx2qRzdEAIqp2U18zfm-1" edge="1">
          <mxGeometry relative="1" as="geometry" />
        </mxCell>
        <mxCell id="GMx2qRzdEAIqp2U18zfm-2" value="Программа поступления" style="ellipse;whiteSpace=wrap;html=1;fontStyle=1;fontSize=13;" parent="1" vertex="1">
          <mxGeometry x="-110" y="460" width="120" height="80" as="geometry" />
        </mxCell>
        <mxCell id="GMx2qRzdEAIqp2U18zfm-21" style="edgeStyle=orthogonalEdgeStyle;rounded=0;orthogonalLoop=1;jettySize=auto;html=1;exitX=1;exitY=0.5;exitDx=0;exitDy=0;entryX=0;entryY=0.5;entryDx=0;entryDy=0;endArrow=none;endFill=0;" parent="1" source="GMx2qRzdEAIqp2U18zfm-3" target="GMx2qRzdEAIqp2U18zfm-1" edge="1">
          <mxGeometry relative="1" as="geometry" />
        </mxCell>
        <mxCell id="GMx2qRzdEAIqp2U18zfm-23" style="edgeStyle=orthogonalEdgeStyle;rounded=0;orthogonalLoop=1;jettySize=auto;html=1;exitX=0.5;exitY=0;exitDx=0;exitDy=0;entryX=0.5;entryY=1;entryDx=0;entryDy=0;endArrow=none;endFill=0;" parent="1" source="GMx2qRzdEAIqp2U18zfm-3" target="GMx2qRzdEAIqp2U18zfm-4" edge="1">
          <mxGeometry relative="1" as="geometry" />
        </mxCell>
        <mxCell id="GMx2qRzdEAIqp2U18zfm-3" value="Менеджер" style="ellipse;whiteSpace=wrap;html=1;fontStyle=1;fontSize=13;" parent="1" vertex="1">
          <mxGeometry x="-450" y="590" width="120" height="80" as="geometry" />
        </mxCell>
        <mxCell id="GMx2qRzdEAIqp2U18zfm-4" value="Факультет" style="ellipse;whiteSpace=wrap;html=1;fontStyle=1;fontSize=13;fillColor=#dae8fc;strokeColor=#6c8ebf;" parent="1" vertex="1">
          <mxGeometry x="-450" y="350" width="120" height="80" as="geometry" />
        </mxCell>
        <mxCell id="GMx2qRzdEAIqp2U18zfm-28" style="edgeStyle=orthogonalEdgeStyle;rounded=0;orthogonalLoop=1;jettySize=auto;html=1;exitX=0;exitY=0.5;exitDx=0;exitDy=0;entryX=1;entryY=0.5;entryDx=0;entryDy=0;endArrow=none;endFill=0;" parent="1" source="GMx2qRzdEAIqp2U18zfm-5" target="GMx2qRzdEAIqp2U18zfm-4" edge="1">
          <mxGeometry relative="1" as="geometry" />
        </mxCell>
        <mxCell id="GMx2qRzdEAIqp2U18zfm-5" value="Программа" style="ellipse;whiteSpace=wrap;html=1;fontStyle=1;fontSize=13;fillColor=#dae8fc;strokeColor=#6c8ebf;" parent="1" vertex="1">
          <mxGeometry x="-240" y="350" width="120" height="80" as="geometry" />
        </mxCell>
        <mxCell id="GMx2qRzdEAIqp2U18zfm-26" style="edgeStyle=orthogonalEdgeStyle;rounded=0;orthogonalLoop=1;jettySize=auto;html=1;exitX=0.5;exitY=1;exitDx=0;exitDy=0;entryX=0.5;entryY=0;entryDx=0;entryDy=0;endArrow=none;endFill=0;" parent="1" source="GMx2qRzdEAIqp2U18zfm-6" target="GMx2qRzdEAIqp2U18zfm-7" edge="1">
          <mxGeometry relative="1" as="geometry" />
        </mxCell>
        <mxCell id="GMx2qRzdEAIqp2U18zfm-27" style="edgeStyle=orthogonalEdgeStyle;rounded=0;orthogonalLoop=1;jettySize=auto;html=1;exitX=0;exitY=0.5;exitDx=0;exitDy=0;entryX=0.5;entryY=0;entryDx=0;entryDy=0;endArrow=none;endFill=0;" parent="1" source="GMx2qRzdEAIqp2U18zfm-6" target="GMx2qRzdEAIqp2U18zfm-5" edge="1">
          <mxGeometry relative="1" as="geometry" />
        </mxCell>
        <mxCell id="GMx2qRzdEAIqp2U18zfm-6" value="Уровень образования" style="ellipse;whiteSpace=wrap;html=1;fontStyle=1;fontSize=13;fillColor=#dae8fc;strokeColor=#6c8ebf;" parent="1" vertex="1">
          <mxGeometry x="160" y="350" width="120" height="80" as="geometry" />
        </mxCell>
        <mxCell id="GMx2qRzdEAIqp2U18zfm-7" value="Тип документа об образовании" style="ellipse;whiteSpace=wrap;html=1;fontStyle=1;fontSize=13;fillColor=#dae8fc;strokeColor=#6c8ebf;" parent="1" vertex="1">
          <mxGeometry x="160" y="780" width="120" height="80" as="geometry" />
        </mxCell>
        <mxCell id="GMx2qRzdEAIqp2U18zfm-20" style="edgeStyle=orthogonalEdgeStyle;rounded=0;orthogonalLoop=1;jettySize=auto;html=1;exitX=0.5;exitY=0;exitDx=0;exitDy=0;entryX=0.5;entryY=1;entryDx=0;entryDy=0;endArrow=none;endFill=0;" parent="1" source="GMx2qRzdEAIqp2U18zfm-8" target="GMx2qRzdEAIqp2U18zfm-3" edge="1">
          <mxGeometry relative="1" as="geometry" />
        </mxCell>
        <mxCell id="GMx2qRzdEAIqp2U18zfm-8" value="Уведомление" style="ellipse;whiteSpace=wrap;html=1;fontStyle=1;fontSize=13;" parent="1" vertex="1">
          <mxGeometry x="-450" y="820" width="120" height="80" as="geometry" />
        </mxCell>
        <mxCell id="GMx2qRzdEAIqp2U18zfm-16" style="edgeStyle=orthogonalEdgeStyle;rounded=0;orthogonalLoop=1;jettySize=auto;html=1;exitX=1;exitY=0.5;exitDx=0;exitDy=0;entryX=0;entryY=0.5;entryDx=0;entryDy=0;endArrow=none;endFill=0;" parent="1" source="GMx2qRzdEAIqp2U18zfm-9" target="GMx2qRzdEAIqp2U18zfm-7" edge="1">
          <mxGeometry relative="1" as="geometry" />
        </mxCell>
        <mxCell id="GMx2qRzdEAIqp2U18zfm-17" style="edgeStyle=orthogonalEdgeStyle;rounded=0;orthogonalLoop=1;jettySize=auto;html=1;exitX=0.5;exitY=1;exitDx=0;exitDy=0;entryX=0.5;entryY=0;entryDx=0;entryDy=0;endArrow=none;endFill=0;" parent="1" source="GMx2qRzdEAIqp2U18zfm-9" target="GMx2qRzdEAIqp2U18zfm-10" edge="1">
          <mxGeometry relative="1" as="geometry" />
        </mxCell>
        <mxCell id="GMx2qRzdEAIqp2U18zfm-9" value="Документ" style="ellipse;whiteSpace=wrap;html=1;fontStyle=1;fontSize=13;" parent="1" vertex="1">
          <mxGeometry x="-10" y="780" width="120" height="80" as="geometry" />
        </mxCell>
        <mxCell id="GMx2qRzdEAIqp2U18zfm-10" value="Файл" style="ellipse;whiteSpace=wrap;html=1;fontStyle=1;fontSize=13;" parent="1" vertex="1">
          <mxGeometry x="-10" y="910" width="120" height="80" as="geometry" />
        </mxCell>
      </root>
    </mxGraphModel>
  </diagram>
  <diagram id="89pDqgZRv_U_qhsEFSOw" name="Набросок контекстов">
    <mxGraphModel dx="2327" dy="887" grid="1" gridSize="10" guides="1" tooltips="1" connect="1" arrows="1" fold="1" page="1" pageScale="1" pageWidth="827" pageHeight="1169" math="0" shadow="0">
      <root>
        <mxCell id="0" />
        <mxCell id="1" parent="0" />
        <mxCell id="Pm3cgO3kJLO4dbvmBmhw-31" style="edgeStyle=orthogonalEdgeStyle;rounded=0;orthogonalLoop=1;jettySize=auto;html=1;entryX=0.5;entryY=1;entryDx=0;entryDy=0;endArrow=none;endFill=0;" parent="1" source="Pm3cgO3kJLO4dbvmBmhw-26" target="Pm3cgO3kJLO4dbvmBmhw-28" edge="1">
          <mxGeometry relative="1" as="geometry" />
        </mxCell>
        <mxCell id="Pm3cgO3kJLO4dbvmBmhw-60" style="edgeStyle=orthogonalEdgeStyle;rounded=0;orthogonalLoop=1;jettySize=auto;html=1;exitX=0.5;exitY=1;exitDx=0;exitDy=0;entryX=0;entryY=0.5;entryDx=0;entryDy=0;endArrow=none;endFill=0;" parent="1" source="Pm3cgO3kJLO4dbvmBmhw-26" target="Pm3cgO3kJLO4dbvmBmhw-53" edge="1">
          <mxGeometry relative="1" as="geometry">
            <Array as="points">
              <mxPoint x="-370" y="770" />
            </Array>
          </mxGeometry>
        </mxCell>
        <mxCell id="Pm3cgO3kJLO4dbvmBmhw-76" style="edgeStyle=orthogonalEdgeStyle;rounded=0;orthogonalLoop=1;jettySize=auto;html=1;exitX=1;exitY=0.5;exitDx=0;exitDy=0;entryX=0.5;entryY=1;entryDx=0;entryDy=0;endArrow=none;endFill=0;" parent="1" source="Pm3cgO3kJLO4dbvmBmhw-26" target="Pm3cgO3kJLO4dbvmBmhw-68" edge="1">
          <mxGeometry relative="1" as="geometry" />
        </mxCell>
        <mxCell id="Pm3cgO3kJLO4dbvmBmhw-77" style="edgeStyle=orthogonalEdgeStyle;rounded=0;orthogonalLoop=1;jettySize=auto;html=1;exitX=1;exitY=1;exitDx=0;exitDy=0;entryX=0.5;entryY=1;entryDx=0;entryDy=0;endArrow=none;endFill=0;" parent="1" source="Pm3cgO3kJLO4dbvmBmhw-26" target="Pm3cgO3kJLO4dbvmBmhw-67" edge="1">
          <mxGeometry relative="1" as="geometry">
            <Array as="points">
              <mxPoint x="-328" y="530" />
              <mxPoint x="390" y="530" />
              <mxPoint x="390" y="450" />
              <mxPoint x="580" y="450" />
            </Array>
          </mxGeometry>
        </mxCell>
        <mxCell id="Pm3cgO3kJLO4dbvmBmhw-26" value="Пользователь" style="ellipse;whiteSpace=wrap;html=1;fontStyle=1;fontSize=13;" parent="1" vertex="1">
          <mxGeometry x="-430" y="520" width="120" height="80" as="geometry" />
        </mxCell>
        <mxCell id="Pm3cgO3kJLO4dbvmBmhw-33" style="edgeStyle=orthogonalEdgeStyle;rounded=0;orthogonalLoop=1;jettySize=auto;html=1;exitX=0.5;exitY=0;exitDx=0;exitDy=0;entryX=0;entryY=0.5;entryDx=0;entryDy=0;endArrow=none;endFill=0;" parent="1" source="Pm3cgO3kJLO4dbvmBmhw-28" target="Pm3cgO3kJLO4dbvmBmhw-30" edge="1">
          <mxGeometry relative="1" as="geometry" />
        </mxCell>
        <mxCell id="Pm3cgO3kJLO4dbvmBmhw-28" value="Пользователь" style="ellipse;whiteSpace=wrap;html=1;fontStyle=1;fontSize=13;" parent="1" vertex="1">
          <mxGeometry x="-430" y="240" width="120" height="80" as="geometry" />
        </mxCell>
        <mxCell id="Pm3cgO3kJLO4dbvmBmhw-30" value="Уведомление" style="ellipse;whiteSpace=wrap;html=1;fontStyle=1;fontSize=13;" parent="1" vertex="1">
          <mxGeometry x="-290" y="110" width="120" height="80" as="geometry" />
        </mxCell>
        <mxCell id="Pm3cgO3kJLO4dbvmBmhw-40" value="" style="rounded=1;whiteSpace=wrap;html=1;fillColor=none;fontColor=default;shadow=0;glass=0;" parent="1" vertex="1">
          <mxGeometry x="-445" y="40" width="420" height="310" as="geometry" />
        </mxCell>
        <mxCell id="Pm3cgO3kJLO4dbvmBmhw-43" value="Контекст уведомлений" style="text;html=1;align=center;verticalAlign=middle;whiteSpace=wrap;rounded=0;fontStyle=1;fontSize=13;" parent="1" vertex="1">
          <mxGeometry x="-315" y="40" width="170" height="30" as="geometry" />
        </mxCell>
        <mxCell id="Pm3cgO3kJLO4dbvmBmhw-44" value="" style="rounded=1;whiteSpace=wrap;html=1;fillColor=none;fontColor=default;shadow=0;glass=0;" parent="1" vertex="1">
          <mxGeometry x="-490" y="457.5" width="240" height="205" as="geometry" />
        </mxCell>
        <mxCell id="Pm3cgO3kJLO4dbvmBmhw-45" value="Контекст пользователя" style="text;html=1;align=center;verticalAlign=middle;whiteSpace=wrap;rounded=0;fontSize=13;fontStyle=1" parent="1" vertex="1">
          <mxGeometry x="-455" y="457.5" width="170" height="30" as="geometry" />
        </mxCell>
        <mxCell id="Pm3cgO3kJLO4dbvmBmhw-48" value="U" style="text;html=1;align=center;verticalAlign=middle;whiteSpace=wrap;rounded=0;" parent="1" vertex="1">
          <mxGeometry x="-400" y="430" width="30" height="27.5" as="geometry" />
        </mxCell>
        <mxCell id="Pm3cgO3kJLO4dbvmBmhw-50" value="D" style="text;html=1;align=center;verticalAlign=middle;whiteSpace=wrap;rounded=0;" parent="1" vertex="1">
          <mxGeometry x="-400" y="350" width="30" height="27.5" as="geometry" />
        </mxCell>
        <mxCell id="Pm3cgO3kJLO4dbvmBmhw-56" style="edgeStyle=orthogonalEdgeStyle;rounded=0;orthogonalLoop=1;jettySize=auto;html=1;exitX=0.5;exitY=1;exitDx=0;exitDy=0;entryX=1;entryY=0.5;entryDx=0;entryDy=0;endArrow=none;endFill=0;" parent="1" source="Pm3cgO3kJLO4dbvmBmhw-52" target="Pm3cgO3kJLO4dbvmBmhw-54" edge="1">
          <mxGeometry relative="1" as="geometry" />
        </mxCell>
        <mxCell id="Pm3cgO3kJLO4dbvmBmhw-58" style="edgeStyle=orthogonalEdgeStyle;rounded=0;orthogonalLoop=1;jettySize=auto;html=1;exitX=1;exitY=0.5;exitDx=0;exitDy=0;entryX=0;entryY=0.5;entryDx=0;entryDy=0;endArrow=none;endFill=0;" parent="1" source="Pm3cgO3kJLO4dbvmBmhw-52" target="Pm3cgO3kJLO4dbvmBmhw-57" edge="1">
          <mxGeometry relative="1" as="geometry" />
        </mxCell>
        <mxCell id="Pm3cgO3kJLO4dbvmBmhw-96" style="edgeStyle=orthogonalEdgeStyle;rounded=0;orthogonalLoop=1;jettySize=auto;html=1;exitX=1;exitY=0;exitDx=0;exitDy=0;entryX=0.5;entryY=1;entryDx=0;entryDy=0;endArrow=none;endFill=0;" parent="1" source="Pm3cgO3kJLO4dbvmBmhw-52" target="Pm3cgO3kJLO4dbvmBmhw-94" edge="1">
          <mxGeometry relative="1" as="geometry">
            <Array as="points">
              <mxPoint x="22" y="770" />
              <mxPoint x="360" y="770" />
              <mxPoint x="360" y="430" />
            </Array>
          </mxGeometry>
        </mxCell>
        <mxCell id="Pm3cgO3kJLO4dbvmBmhw-52" value="Документ" style="ellipse;whiteSpace=wrap;html=1;fontStyle=1;fontSize=13;" parent="1" vertex="1">
          <mxGeometry x="-80" y="830" width="120" height="80" as="geometry" />
        </mxCell>
        <mxCell id="Pm3cgO3kJLO4dbvmBmhw-55" style="edgeStyle=orthogonalEdgeStyle;rounded=0;orthogonalLoop=1;jettySize=auto;html=1;exitX=1;exitY=0.5;exitDx=0;exitDy=0;entryX=0.5;entryY=0;entryDx=0;entryDy=0;endArrow=none;endFill=0;" parent="1" source="Pm3cgO3kJLO4dbvmBmhw-53" target="Pm3cgO3kJLO4dbvmBmhw-52" edge="1">
          <mxGeometry relative="1" as="geometry" />
        </mxCell>
        <mxCell id="Pm3cgO3kJLO4dbvmBmhw-53" value="Абитуриент" style="ellipse;whiteSpace=wrap;html=1;fontStyle=1;fontSize=13;" parent="1" vertex="1">
          <mxGeometry x="-180" y="730" width="120" height="80" as="geometry" />
        </mxCell>
        <mxCell id="Pm3cgO3kJLO4dbvmBmhw-54" value="Файл" style="ellipse;whiteSpace=wrap;html=1;fontStyle=1;fontSize=13;" parent="1" vertex="1">
          <mxGeometry x="-180" y="930" width="120" height="80" as="geometry" />
        </mxCell>
        <mxCell id="Pm3cgO3kJLO4dbvmBmhw-57" value="Тип документа об образовании" style="ellipse;whiteSpace=wrap;html=1;fontStyle=1;fontSize=13;fillColor=#dae8fc;strokeColor=#6c8ebf;" parent="1" vertex="1">
          <mxGeometry x="80" y="830" width="120" height="80" as="geometry" />
        </mxCell>
        <mxCell id="Pm3cgO3kJLO4dbvmBmhw-61" value="Факультет" style="ellipse;whiteSpace=wrap;html=1;fontStyle=1;fontSize=13;fillColor=#dae8fc;strokeColor=#6c8ebf;" parent="1" vertex="1">
          <mxGeometry x="560" y="620" width="120" height="80" as="geometry" />
        </mxCell>
        <mxCell id="Pm3cgO3kJLO4dbvmBmhw-73" style="edgeStyle=orthogonalEdgeStyle;rounded=0;orthogonalLoop=1;jettySize=auto;html=1;exitX=0.5;exitY=0;exitDx=0;exitDy=0;entryX=0.5;entryY=1;entryDx=0;entryDy=0;endArrow=none;endFill=0;" parent="1" source="Pm3cgO3kJLO4dbvmBmhw-62" target="Pm3cgO3kJLO4dbvmBmhw-61" edge="1">
          <mxGeometry relative="1" as="geometry" />
        </mxCell>
        <mxCell id="Pm3cgO3kJLO4dbvmBmhw-74" style="edgeStyle=orthogonalEdgeStyle;rounded=0;orthogonalLoop=1;jettySize=auto;html=1;exitX=0;exitY=0.5;exitDx=0;exitDy=0;entryX=0.5;entryY=1;entryDx=0;entryDy=0;endArrow=none;endFill=0;" parent="1" source="Pm3cgO3kJLO4dbvmBmhw-62" target="Pm3cgO3kJLO4dbvmBmhw-63" edge="1">
          <mxGeometry relative="1" as="geometry" />
        </mxCell>
        <mxCell id="Pm3cgO3kJLO4dbvmBmhw-62" value="Программа" style="ellipse;whiteSpace=wrap;html=1;fontStyle=1;fontSize=13;fillColor=#dae8fc;strokeColor=#6c8ebf;" parent="1" vertex="1">
          <mxGeometry x="560" y="750" width="120" height="80" as="geometry" />
        </mxCell>
        <mxCell id="Pm3cgO3kJLO4dbvmBmhw-63" value="Уровень образования" style="ellipse;whiteSpace=wrap;html=1;fontStyle=1;fontSize=13;fillColor=#dae8fc;strokeColor=#6c8ebf;" parent="1" vertex="1">
          <mxGeometry x="430" y="670" width="120" height="80" as="geometry" />
        </mxCell>
        <mxCell id="Pm3cgO3kJLO4dbvmBmhw-65" style="edgeStyle=orthogonalEdgeStyle;rounded=0;orthogonalLoop=1;jettySize=auto;html=1;exitX=0;exitY=0.5;exitDx=0;exitDy=0;entryX=1;entryY=0.5;entryDx=0;entryDy=0;endArrow=none;endFill=0;" parent="1" source="Pm3cgO3kJLO4dbvmBmhw-64" target="Pm3cgO3kJLO4dbvmBmhw-57" edge="1">
          <mxGeometry relative="1" as="geometry" />
        </mxCell>
        <mxCell id="Pm3cgO3kJLO4dbvmBmhw-75" style="edgeStyle=orthogonalEdgeStyle;rounded=0;orthogonalLoop=1;jettySize=auto;html=1;exitX=0;exitY=0;exitDx=0;exitDy=0;entryX=0;entryY=1;entryDx=0;entryDy=0;endArrow=none;endFill=0;" parent="1" source="Pm3cgO3kJLO4dbvmBmhw-64" target="Pm3cgO3kJLO4dbvmBmhw-63" edge="1">
          <mxGeometry relative="1" as="geometry" />
        </mxCell>
        <mxCell id="Pm3cgO3kJLO4dbvmBmhw-64" value="Тип документа об образовании" style="ellipse;whiteSpace=wrap;html=1;fontStyle=1;fontSize=13;fillColor=#dae8fc;strokeColor=#6c8ebf;" parent="1" vertex="1">
          <mxGeometry x="430" y="830" width="120" height="80" as="geometry" />
        </mxCell>
        <mxCell id="Pm3cgO3kJLO4dbvmBmhw-66" value="Справочный контекст" style="text;html=1;align=center;verticalAlign=middle;whiteSpace=wrap;rounded=0;fontSize=13;fontStyle=1" parent="1" vertex="1">
          <mxGeometry x="507" y="555" width="146" height="30" as="geometry" />
        </mxCell>
        <mxCell id="Pm3cgO3kJLO4dbvmBmhw-79" style="edgeStyle=orthogonalEdgeStyle;rounded=0;orthogonalLoop=1;jettySize=auto;html=1;exitX=0.5;exitY=0;exitDx=0;exitDy=0;entryX=0.5;entryY=0;entryDx=0;entryDy=0;endArrow=none;endFill=0;" parent="1" source="Pm3cgO3kJLO4dbvmBmhw-67" target="Pm3cgO3kJLO4dbvmBmhw-71" edge="1">
          <mxGeometry relative="1" as="geometry" />
        </mxCell>
        <mxCell id="Pm3cgO3kJLO4dbvmBmhw-87" style="edgeStyle=orthogonalEdgeStyle;rounded=0;orthogonalLoop=1;jettySize=auto;html=1;exitX=1;exitY=0.5;exitDx=0;exitDy=0;entryX=0;entryY=0.5;entryDx=0;entryDy=0;endArrow=none;endFill=0;" parent="1" source="Pm3cgO3kJLO4dbvmBmhw-67" target="Pm3cgO3kJLO4dbvmBmhw-84" edge="1">
          <mxGeometry relative="1" as="geometry" />
        </mxCell>
        <mxCell id="Pm3cgO3kJLO4dbvmBmhw-67" value="Менеджер" style="ellipse;whiteSpace=wrap;html=1;fontStyle=1;fontSize=13;" parent="1" vertex="1">
          <mxGeometry x="520" y="240" width="120" height="80" as="geometry" />
        </mxCell>
        <mxCell id="Pm3cgO3kJLO4dbvmBmhw-80" style="edgeStyle=orthogonalEdgeStyle;rounded=0;orthogonalLoop=1;jettySize=auto;html=1;exitX=0.5;exitY=0;exitDx=0;exitDy=0;entryX=0.5;entryY=1;entryDx=0;entryDy=0;endArrow=none;endFill=0;" parent="1" source="Pm3cgO3kJLO4dbvmBmhw-68" target="Pm3cgO3kJLO4dbvmBmhw-71" edge="1">
          <mxGeometry relative="1" as="geometry" />
        </mxCell>
        <mxCell id="Pm3cgO3kJLO4dbvmBmhw-68" value="Абитуриент" style="ellipse;whiteSpace=wrap;html=1;fontStyle=1;fontSize=13;" parent="1" vertex="1">
          <mxGeometry x="200" y="377.5" width="120" height="80" as="geometry" />
        </mxCell>
        <mxCell id="Pm3cgO3kJLO4dbvmBmhw-78" style="edgeStyle=orthogonalEdgeStyle;rounded=0;orthogonalLoop=1;jettySize=auto;html=1;exitX=0;exitY=0.5;exitDx=0;exitDy=0;entryX=1;entryY=0.5;entryDx=0;entryDy=0;endArrow=none;endFill=0;" parent="1" source="Pm3cgO3kJLO4dbvmBmhw-69" target="Pm3cgO3kJLO4dbvmBmhw-71" edge="1">
          <mxGeometry relative="1" as="geometry" />
        </mxCell>
        <mxCell id="Pm3cgO3kJLO4dbvmBmhw-69" value="Программа поступления" style="ellipse;whiteSpace=wrap;html=1;fontStyle=1;fontSize=13;" parent="1" vertex="1">
          <mxGeometry x="360" y="240" width="120" height="80" as="geometry" />
        </mxCell>
        <mxCell id="Pm3cgO3kJLO4dbvmBmhw-71" value="Поступление абитуриента" style="ellipse;whiteSpace=wrap;html=1;fontStyle=1;fontSize=13;" parent="1" vertex="1">
          <mxGeometry x="200" y="240" width="120" height="80" as="geometry" />
        </mxCell>
        <mxCell id="Pm3cgO3kJLO4dbvmBmhw-83" value="" style="rounded=1;whiteSpace=wrap;html=1;fillColor=none;fontColor=default;shadow=0;glass=0;" parent="1" vertex="1">
          <mxGeometry x="422" y="555" width="316" height="370" as="geometry" />
        </mxCell>
        <mxCell id="Pm3cgO3kJLO4dbvmBmhw-90" style="edgeStyle=orthogonalEdgeStyle;rounded=0;orthogonalLoop=1;jettySize=auto;html=1;exitX=0.5;exitY=1;exitDx=0;exitDy=0;entryX=1;entryY=0.5;entryDx=0;entryDy=0;endArrow=none;endFill=0;" parent="1" source="Pm3cgO3kJLO4dbvmBmhw-84" target="Pm3cgO3kJLO4dbvmBmhw-61" edge="1">
          <mxGeometry relative="1" as="geometry" />
        </mxCell>
        <mxCell id="Pm3cgO3kJLO4dbvmBmhw-84" value="Факультет" style="ellipse;whiteSpace=wrap;html=1;fontStyle=1;fontSize=13;fillColor=#dae8fc;strokeColor=#6c8ebf;" parent="1" vertex="1">
          <mxGeometry x="670" y="240" width="120" height="80" as="geometry" />
        </mxCell>
        <mxCell id="Pm3cgO3kJLO4dbvmBmhw-88" style="edgeStyle=orthogonalEdgeStyle;rounded=0;orthogonalLoop=1;jettySize=auto;html=1;exitX=0;exitY=1;exitDx=0;exitDy=0;entryX=0;entryY=0;entryDx=0;entryDy=0;endArrow=none;endFill=0;" parent="1" source="Pm3cgO3kJLO4dbvmBmhw-86" target="Pm3cgO3kJLO4dbvmBmhw-71" edge="1">
          <mxGeometry relative="1" as="geometry" />
        </mxCell>
        <mxCell id="Pm3cgO3kJLO4dbvmBmhw-91" style="edgeStyle=orthogonalEdgeStyle;rounded=0;orthogonalLoop=1;jettySize=auto;html=1;exitX=1;exitY=0.5;exitDx=0;exitDy=0;entryX=1;entryY=0.5;entryDx=0;entryDy=0;endArrow=none;endFill=0;" parent="1" source="Pm3cgO3kJLO4dbvmBmhw-86" target="Pm3cgO3kJLO4dbvmBmhw-62" edge="1">
          <mxGeometry relative="1" as="geometry">
            <Array as="points">
              <mxPoint x="820" y="150" />
              <mxPoint x="820" y="790" />
            </Array>
          </mxGeometry>
        </mxCell>
        <mxCell id="Pm3cgO3kJLO4dbvmBmhw-86" value="Программа" style="ellipse;whiteSpace=wrap;html=1;fontStyle=1;fontSize=13;fillColor=#dae8fc;strokeColor=#6c8ebf;" parent="1" vertex="1">
          <mxGeometry x="200" y="110" width="120" height="80" as="geometry" />
        </mxCell>
        <mxCell id="Pm3cgO3kJLO4dbvmBmhw-92" value="" style="rounded=1;whiteSpace=wrap;html=1;fillColor=none;fontColor=default;shadow=0;glass=0;" parent="1" vertex="1">
          <mxGeometry x="140" y="100" width="700" height="400" as="geometry" />
        </mxCell>
        <mxCell id="Pm3cgO3kJLO4dbvmBmhw-93" value="" style="rounded=1;whiteSpace=wrap;html=1;fillColor=none;fontColor=default;shadow=0;glass=0;" parent="1" vertex="1">
          <mxGeometry x="-230" y="690" width="480" height="340" as="geometry" />
        </mxCell>
        <mxCell id="Pm3cgO3kJLO4dbvmBmhw-95" style="edgeStyle=orthogonalEdgeStyle;rounded=0;orthogonalLoop=1;jettySize=auto;html=1;exitX=0;exitY=0;exitDx=0;exitDy=0;entryX=1;entryY=1;entryDx=0;entryDy=0;endArrow=none;endFill=0;" parent="1" source="Pm3cgO3kJLO4dbvmBmhw-94" target="Pm3cgO3kJLO4dbvmBmhw-71" edge="1">
          <mxGeometry relative="1" as="geometry" />
        </mxCell>
        <mxCell id="Pm3cgO3kJLO4dbvmBmhw-94" value="Документ" style="ellipse;whiteSpace=wrap;html=1;fontSize=13;fontStyle=1" parent="1" vertex="1">
          <mxGeometry x="360" y="350" width="120" height="80" as="geometry" />
        </mxCell>
        <mxCell id="Pm3cgO3kJLO4dbvmBmhw-97" value="Контекст документов" style="text;html=1;align=center;verticalAlign=middle;whiteSpace=wrap;rounded=0;fontSize=13;fontStyle=1" parent="1" vertex="1">
          <mxGeometry x="-60" y="690" width="140" height="30" as="geometry" />
        </mxCell>
        <mxCell id="Pm3cgO3kJLO4dbvmBmhw-98" value="Контекст поступления" style="text;html=1;align=center;verticalAlign=middle;whiteSpace=wrap;rounded=0;fontSize=13;fontStyle=1" parent="1" vertex="1">
          <mxGeometry x="435" y="100" width="150" height="30" as="geometry" />
        </mxCell>
        <mxCell id="BP_Yvjevz-j_59EQDCo--3" style="edgeStyle=orthogonalEdgeStyle;rounded=0;orthogonalLoop=1;jettySize=auto;html=1;exitX=0;exitY=0.5;exitDx=0;exitDy=0;entryX=1;entryY=0.5;entryDx=0;entryDy=0;endArrow=none;endFill=0;" edge="1" parent="1" source="BP_Yvjevz-j_59EQDCo--1" target="Pm3cgO3kJLO4dbvmBmhw-28">
          <mxGeometry relative="1" as="geometry" />
        </mxCell>
        <mxCell id="BP_Yvjevz-j_59EQDCo--4" style="edgeStyle=orthogonalEdgeStyle;rounded=0;orthogonalLoop=1;jettySize=auto;html=1;exitX=0.5;exitY=0;exitDx=0;exitDy=0;entryX=0.5;entryY=1;entryDx=0;entryDy=0;endArrow=none;endFill=0;" edge="1" parent="1" source="BP_Yvjevz-j_59EQDCo--1" target="Pm3cgO3kJLO4dbvmBmhw-30">
          <mxGeometry relative="1" as="geometry" />
        </mxCell>
        <mxCell id="BP_Yvjevz-j_59EQDCo--13" style="edgeStyle=orthogonalEdgeStyle;rounded=0;orthogonalLoop=1;jettySize=auto;html=1;exitX=1;exitY=0.5;exitDx=0;exitDy=0;entryX=0;entryY=0.5;entryDx=0;entryDy=0;endArrow=none;endFill=0;" edge="1" parent="1" source="BP_Yvjevz-j_59EQDCo--1" target="Pm3cgO3kJLO4dbvmBmhw-71">
          <mxGeometry relative="1" as="geometry" />
        </mxCell>
        <mxCell id="BP_Yvjevz-j_59EQDCo--1" value="Поступление абитуриента" style="ellipse;whiteSpace=wrap;html=1;fontStyle=1;fontSize=13;" vertex="1" parent="1">
          <mxGeometry x="-290" y="240" width="120" height="80" as="geometry" />
        </mxCell>
        <mxCell id="BP_Yvjevz-j_59EQDCo--9" value="U" style="text;html=1;align=center;verticalAlign=middle;whiteSpace=wrap;rounded=0;" vertex="1" parent="1">
          <mxGeometry x="-250" y="500" width="30" height="27.5" as="geometry" />
        </mxCell>
        <mxCell id="BP_Yvjevz-j_59EQDCo--10" value="U" style="text;html=1;align=center;verticalAlign=middle;whiteSpace=wrap;rounded=0;" vertex="1" parent="1">
          <mxGeometry x="-250" y="560" width="30" height="27.5" as="geometry" />
        </mxCell>
        <mxCell id="BP_Yvjevz-j_59EQDCo--11" value="U" style="text;html=1;align=center;verticalAlign=middle;whiteSpace=wrap;rounded=0;" vertex="1" parent="1">
          <mxGeometry x="-400" y="662.5" width="30" height="27.5" as="geometry" />
        </mxCell>
        <mxCell id="BP_Yvjevz-j_59EQDCo--14" value="D" style="text;html=1;align=center;verticalAlign=middle;whiteSpace=wrap;rounded=0;" vertex="1" parent="1">
          <mxGeometry x="-260" y="770" width="30" height="27.5" as="geometry" />
        </mxCell>
        <mxCell id="BP_Yvjevz-j_59EQDCo--15" value="D" style="text;html=1;align=center;verticalAlign=middle;whiteSpace=wrap;rounded=0;" vertex="1" parent="1">
          <mxGeometry x="230" y="500" width="30" height="27.5" as="geometry" />
        </mxCell>
        <mxCell id="BP_Yvjevz-j_59EQDCo--16" value="D" style="text;html=1;align=center;verticalAlign=middle;whiteSpace=wrap;rounded=0;" vertex="1" parent="1">
          <mxGeometry x="392" y="500" width="30" height="27.5" as="geometry" />
        </mxCell>
        <mxCell id="BP_Yvjevz-j_59EQDCo--17" value="U" style="text;html=1;align=center;verticalAlign=middle;whiteSpace=wrap;rounded=0;" vertex="1" parent="1">
          <mxGeometry x="250" y="742.5" width="30" height="27.5" as="geometry" />
        </mxCell>
        <mxCell id="BP_Yvjevz-j_59EQDCo--19" value="D" style="text;html=1;align=center;verticalAlign=middle;whiteSpace=wrap;rounded=0;" vertex="1" parent="1">
          <mxGeometry x="330" y="500" width="30" height="27.5" as="geometry" />
        </mxCell>
        <mxCell id="BP_Yvjevz-j_59EQDCo--20" value="U" style="text;html=1;align=center;verticalAlign=middle;whiteSpace=wrap;rounded=0;" vertex="1" parent="1">
          <mxGeometry x="392" y="840" width="30" height="27.5" as="geometry" />
        </mxCell>
        <mxCell id="BP_Yvjevz-j_59EQDCo--21" value="D" style="text;html=1;align=center;verticalAlign=middle;whiteSpace=wrap;rounded=0;" vertex="1" parent="1">
          <mxGeometry x="250" y="840" width="30" height="27.5" as="geometry" />
        </mxCell>
        <mxCell id="BP_Yvjevz-j_59EQDCo--22" value="U" style="text;html=1;align=center;verticalAlign=middle;whiteSpace=wrap;rounded=0;" vertex="1" parent="1">
          <mxGeometry x="740" y="760" width="30" height="27.5" as="geometry" />
        </mxCell>
        <mxCell id="BP_Yvjevz-j_59EQDCo--23" value="U" style="text;html=1;align=center;verticalAlign=middle;whiteSpace=wrap;rounded=0;" vertex="1" parent="1">
          <mxGeometry x="700" y="527.5" width="30" height="27.5" as="geometry" />
        </mxCell>
        <mxCell id="BP_Yvjevz-j_59EQDCo--24" value="D" style="text;html=1;align=center;verticalAlign=middle;whiteSpace=wrap;rounded=0;" vertex="1" parent="1">
          <mxGeometry x="700" y="500" width="30" height="27.5" as="geometry" />
        </mxCell>
        <mxCell id="BP_Yvjevz-j_59EQDCo--25" value="D" style="text;html=1;align=center;verticalAlign=middle;whiteSpace=wrap;rounded=0;" vertex="1" parent="1">
          <mxGeometry x="790" y="500" width="30" height="27.5" as="geometry" />
        </mxCell>
        <mxCell id="BP_Yvjevz-j_59EQDCo--26" value="U" style="text;html=1;align=center;verticalAlign=middle;whiteSpace=wrap;rounded=0;" vertex="1" parent="1">
          <mxGeometry x="110" y="250" width="30" height="27.5" as="geometry" />
        </mxCell>
        <mxCell id="BP_Yvjevz-j_59EQDCo--28" value="D" style="text;html=1;align=center;verticalAlign=middle;whiteSpace=wrap;rounded=0;" vertex="1" parent="1">
          <mxGeometry x="-25" y="250" width="30" height="27.5" as="geometry" />
        </mxCell>
      </root>
    </mxGraphModel>
  </diagram>
  <diagram id="GmBcOvtDSR99-0_he7QM" name="C4 | System Context">
    <mxGraphModel dx="2577" dy="1035" grid="1" gridSize="10" guides="1" tooltips="1" connect="1" arrows="1" fold="1" page="1" pageScale="1" pageWidth="827" pageHeight="1169" math="0" shadow="0">
      <root>
        <mxCell id="0" />
        <mxCell id="1" parent="0" />
        <object placeholders="1" c4Name="[System Context] APA System" c4Type="ContainerScopeBoundary" c4Description="" label="&lt;font style=&quot;font-size: 16px&quot;&gt;&lt;b&gt;&lt;div style=&quot;text-align: left&quot;&gt;%c4Name%&lt;/div&gt;&lt;/b&gt;&lt;/font&gt;&lt;div style=&quot;text-align: left&quot;&gt;%c4Description%&lt;/div&gt;" id="1CeR3glw2Zg9qOSUQiLv-4">
          <mxCell style="text;html=1;strokeColor=none;fillColor=none;align=left;verticalAlign=top;whiteSpace=wrap;rounded=0;metaEdit=1;allowArrows=0;resizable=1;rotatable=0;connectable=0;recursiveResize=0;expand=0;pointerEvents=0;points=[[0.25,0,0],[0.5,0,0],[0.75,0,0],[1,0.25,0],[1,0.5,0],[1,0.75,0],[0.75,1,0],[0.5,1,0],[0.25,1,0],[0,0.75,0],[0,0.5,0],[0,0.25,0]];" parent="1" vertex="1">
            <mxGeometry x="-530" y="310" width="260" height="40" as="geometry" />
          </mxCell>
        </object>
        <object placeholders="1" id="1CeR3glw2Zg9qOSUQiLv-5">
          <mxCell style="rounded=1;fontSize=11;whiteSpace=wrap;html=1;dashed=1;arcSize=20;fillColor=none;strokeColor=#666666;fontColor=#333333;labelBackgroundColor=none;align=left;verticalAlign=bottom;labelBorderColor=none;spacingTop=0;spacing=10;dashPattern=8 4;metaEdit=1;rotatable=0;perimeter=rectanglePerimeter;noLabel=0;labelPadding=0;allowArrows=0;connectable=0;expand=0;recursiveResize=0;editable=1;pointerEvents=0;absoluteArcSize=1;points=[[0.25,0,0],[0.5,0,0],[0.75,0,0],[1,0.25,0],[1,0.5,0],[1,0.75,0],[0.75,1,0],[0.5,1,0],[0.25,1,0],[0,0.75,0],[0,0.5,0],[0,0.25,0]];fontStyle=0" parent="1" vertex="1">
            <mxGeometry x="-540" y="300" width="1020" height="1110" as="geometry" />
          </mxCell>
        </object>
        <object placeholders="1" c4Name="Head Manager" c4Type="Person" c4Description="Главный менеджер. Помимо функционала менеджера имеет возможность управлять течением приёмной кампании" label="&lt;font style=&quot;font-size: 11px;&quot;&gt;&lt;b style=&quot;font-size: 11px;&quot;&gt;%c4Name%&lt;/b&gt;&lt;/font&gt;&lt;div style=&quot;font-size: 11px;&quot;&gt;[%c4Type%]&lt;/div&gt;&lt;br style=&quot;font-size: 11px;&quot;&gt;&lt;div style=&quot;font-size: 11px;&quot;&gt;&lt;font style=&quot;font-size: 11px;&quot;&gt;&lt;font style=&quot;font-size: 11px;&quot; color=&quot;#cccccc&quot;&gt;%c4Description%&lt;/font&gt;&lt;/font&gt;&lt;/div&gt;" id="2XioRxq6I9GtO7Yhc2Fz-1">
          <mxCell style="html=1;fontSize=11;dashed=0;whiteSpace=wrap;fillColor=#083F75;strokeColor=#06315C;fontColor=#ffffff;shape=mxgraph.c4.person2;align=center;metaEdit=1;points=[[0.5,0,0],[1,0.5,0],[1,0.75,0],[0.75,1,0],[0.5,1,0],[0.25,1,0],[0,0.75,0],[0,0.5,0]];resizable=0;" vertex="1" parent="1">
            <mxGeometry x="-386" y="350" width="200" height="180" as="geometry" />
          </mxCell>
        </object>
        <object placeholders="1" c4Name="Applicant" c4Type="Person" c4Description="Абитуриент. Представляет свои данные и выбирает образовательные программы" label="&lt;font style=&quot;font-size: 11px;&quot;&gt;&lt;b style=&quot;font-size: 11px;&quot;&gt;%c4Name%&lt;/b&gt;&lt;/font&gt;&lt;div style=&quot;font-size: 11px;&quot;&gt;[%c4Type%]&lt;/div&gt;&lt;br style=&quot;font-size: 11px;&quot;&gt;&lt;div style=&quot;font-size: 11px;&quot;&gt;&lt;font style=&quot;font-size: 11px;&quot;&gt;&lt;font style=&quot;font-size: 11px;&quot; color=&quot;#cccccc&quot;&gt;%c4Description%&lt;/font&gt;&lt;/font&gt;&lt;/div&gt;" id="2XioRxq6I9GtO7Yhc2Fz-3">
          <mxCell style="html=1;fontSize=11;dashed=0;whiteSpace=wrap;fillColor=#083F75;strokeColor=#06315C;fontColor=#ffffff;shape=mxgraph.c4.person2;align=center;metaEdit=1;points=[[0.5,0,0],[1,0.5,0],[1,0.75,0],[0.75,1,0],[0.5,1,0],[0.25,1,0],[0,0.75,0],[0,0.5,0]];resizable=0;" vertex="1" parent="1">
            <mxGeometry x="-103" y="1150" width="200" height="180" as="geometry" />
          </mxCell>
        </object>
        <object placeholders="1" c4Name="Manager" c4Type="Person" c4Description="Сотрудник факультета. Основная задача — работа с абитуриентами и их документами" label="&lt;font style=&quot;font-size: 11px;&quot;&gt;&lt;b style=&quot;font-size: 11px;&quot;&gt;%c4Name%&lt;/b&gt;&lt;/font&gt;&lt;div style=&quot;font-size: 11px;&quot;&gt;[%c4Type%]&lt;/div&gt;&lt;br style=&quot;font-size: 11px;&quot;&gt;&lt;div style=&quot;font-size: 11px;&quot;&gt;&lt;font style=&quot;font-size: 11px;&quot;&gt;&lt;font style=&quot;font-size: 11px;&quot; color=&quot;#cccccc&quot;&gt;%c4Description%&lt;/font&gt;&lt;/font&gt;&lt;/div&gt;" id="2XioRxq6I9GtO7Yhc2Fz-4">
          <mxCell style="html=1;fontSize=11;dashed=0;whiteSpace=wrap;fillColor=#083F75;strokeColor=#06315C;fontColor=#ffffff;shape=mxgraph.c4.person2;align=center;metaEdit=1;points=[[0.5,0,0],[1,0.5,0],[1,0.75,0],[0.75,1,0],[0.5,1,0],[0.25,1,0],[0,0.75,0],[0,0.5,0]];resizable=0;" vertex="1" parent="1">
            <mxGeometry x="-103" y="350" width="200" height="180" as="geometry" />
          </mxCell>
        </object>
        <object placeholders="1" c4Name="Administrator" c4Type="Person" c4Description="Администратор. Основная задача — управление системой и её обслуживание" label="&lt;font style=&quot;font-size: 11px;&quot;&gt;&lt;b style=&quot;font-size: 11px;&quot;&gt;%c4Name%&lt;/b&gt;&lt;/font&gt;&lt;div style=&quot;font-size: 11px;&quot;&gt;[%c4Type%]&lt;/div&gt;&lt;br style=&quot;font-size: 11px;&quot;&gt;&lt;div style=&quot;font-size: 11px;&quot;&gt;&lt;font style=&quot;font-size: 11px;&quot;&gt;&lt;font style=&quot;font-size: 11px;&quot; color=&quot;#cccccc&quot;&gt;%c4Description%&lt;/font&gt;&lt;/font&gt;&lt;/div&gt;" id="2XioRxq6I9GtO7Yhc2Fz-7">
          <mxCell style="html=1;fontSize=11;dashed=0;whiteSpace=wrap;fillColor=#083F75;strokeColor=#06315C;fontColor=#ffffff;shape=mxgraph.c4.person2;align=center;metaEdit=1;points=[[0.5,0,0],[1,0.5,0],[1,0.75,0],[0.75,1,0],[0.5,1,0],[0.25,1,0],[0,0.75,0],[0,0.5,0]];resizable=0;" vertex="1" parent="1">
            <mxGeometry x="180" y="350" width="200" height="180" as="geometry" />
          </mxCell>
        </object>
        <object placeholders="1" c4Name="APA System" c4Type="Software System" c4Description="Личный кабинет абитуриента. Позволяет абитуриентам подать заявление на поступление в ВУЗ, менеджерам — взаимодействовать с заявлениями абитуриентов" label="&lt;font style=&quot;font-size: 16px&quot;&gt;&lt;b&gt;%c4Name%&lt;/b&gt;&lt;/font&gt;&lt;div&gt;[%c4Type%]&lt;/div&gt;&lt;br&gt;&lt;div&gt;&lt;font style=&quot;font-size: 11px&quot;&gt;&lt;font color=&quot;#cccccc&quot;&gt;%c4Description%&lt;/font&gt;&lt;/div&gt;" id="2XioRxq6I9GtO7Yhc2Fz-8">
          <mxCell style="rounded=1;whiteSpace=wrap;html=1;labelBackgroundColor=none;fillColor=#1061B0;fontColor=#ffffff;align=center;arcSize=10;strokeColor=#0D5091;metaEdit=1;resizable=0;points=[[0.25,0,0],[0.5,0,0],[0.75,0,0],[1,0.25,0],[1,0.5,0],[1,0.75,0],[0.75,1,0],[0.5,1,0],[0.25,1,0],[0,0.75,0],[0,0.5,0],[0,0.25,0]];" vertex="1" parent="1">
            <mxGeometry x="-123" y="660" width="240" height="120" as="geometry" />
          </mxCell>
        </object>
        <object placeholders="1" c4Name="SMTP" c4Type="Software System" c4Description="SMTP сервер Mail.ru" label="&lt;font style=&quot;font-size: 16px&quot;&gt;&lt;b&gt;%c4Name%&lt;/b&gt;&lt;/font&gt;&lt;div&gt;[%c4Type%]&lt;/div&gt;&lt;br&gt;&lt;div&gt;&lt;font style=&quot;font-size: 11px&quot;&gt;&lt;font color=&quot;#cccccc&quot;&gt;%c4Description%&lt;/font&gt;&lt;/div&gt;" id="2XioRxq6I9GtO7Yhc2Fz-9">
          <mxCell style="rounded=1;whiteSpace=wrap;html=1;labelBackgroundColor=none;fillColor=#8C8496;fontColor=#ffffff;align=center;arcSize=10;strokeColor=#736782;metaEdit=1;resizable=0;points=[[0.25,0,0],[0.5,0,0],[0.75,0,0],[1,0.25,0],[1,0.5,0],[1,0.75,0],[0.75,1,0],[0.5,1,0],[0.25,1,0],[0,0.75,0],[0,0.5,0],[0,0.25,0]];" vertex="1" parent="1">
            <mxGeometry x="-123" y="900" width="240" height="120" as="geometry" />
          </mxCell>
        </object>
        <object placeholders="1" c4Type="Relationship" id="2XioRxq6I9GtO7Yhc2Fz-35">
          <mxCell style="endArrow=blockThin;html=1;fontSize=10;fontColor=#404040;strokeWidth=1;endFill=1;strokeColor=#828282;elbow=vertical;metaEdit=1;endSize=14;startSize=14;jumpStyle=arc;jumpSize=16;rounded=0;edgeStyle=orthogonalEdgeStyle;exitX=0.5;exitY=1;exitDx=0;exitDy=0;exitPerimeter=0;entryX=0.5;entryY=0;entryDx=0;entryDy=0;entryPerimeter=0;" edge="1" parent="1" source="2XioRxq6I9GtO7Yhc2Fz-9" target="2XioRxq6I9GtO7Yhc2Fz-3">
            <mxGeometry width="240" relative="1" as="geometry">
              <mxPoint x="-20" y="1080" as="sourcePoint" />
              <mxPoint x="220" y="1080" as="targetPoint" />
            </mxGeometry>
          </mxCell>
        </object>
        <mxCell id="2XioRxq6I9GtO7Yhc2Fz-36" value="&lt;span style=&quot;color: rgba(0, 0, 0, 0); font-family: monospace; font-size: 0px; text-align: start; background-color: rgb(251, 251, 251);&quot;&gt;%3CmxGraphModel%3E%3Croot%3E%3CmxCell%20id%3D%220%22%2F%3E%3CmxCell%20id%3D%221%22%20parent%3D%220%22%2F%3E%3CmxCell%20id%3D%222%22%20value%3D%22%D0%A3%D0%B2%D0%B5%D0%B4%D0%BE%D0%BC%D0%BB%D0%B5%D0%BD%D0%B8%D0%B5%20%D0%B4%D0%BB%D1%8F%20%D0%B0%D0%B1%D0%B8%D1%82%D1%83%D1%80%D0%B8%D0%B5%D0%BD%D1%82%D0%B0%26amp%3Bnbsp%3B%26lt%3Bdiv%26gt%3B%D0%BE%20%D1%81%D1%82%D0%B0%D1%82%D1%83%D1%81%D0%B5%20%D0%B5%D0%B3%D0%BE%20%D0%BF%D0%BE%D1%81%D1%82%D1%83%D0%BF%D0%BB%D0%B5%D0%BD%D0%B8%D1%8F%26lt%3B%2Fdiv%26gt%3B%22%20style%3D%22edgeLabel%3Bhtml%3D1%3Balign%3Dcenter%3BverticalAlign%3Dmiddle%3Bresizable%3D0%3Bpoints%3D%5B%5D%3BfontStyle%3D1%22%20vertex%3D%221%22%20connectable%3D%220%22%20parent%3D%221%22%3E%3CmxGeometry%20y%3D%221090.4705882352941%22%20as%3D%22geometry%22%2F%3E%3C%2FmxCell%3E%3C%2Froot%3E%3C%2FmxGraphModel%3E&lt;/span&gt;" style="edgeLabel;html=1;align=center;verticalAlign=middle;resizable=0;points=[];" vertex="1" connectable="0" parent="2XioRxq6I9GtO7Yhc2Fz-35">
          <mxGeometry x="-0.0181" y="-3" relative="1" as="geometry">
            <mxPoint as="offset" />
          </mxGeometry>
        </mxCell>
        <mxCell id="2XioRxq6I9GtO7Yhc2Fz-38" value="&lt;span style=&quot;&quot;&gt;Уведомление для абитуриента&amp;nbsp;&lt;/span&gt;&lt;div style=&quot;&quot;&gt;о статусе его поступления&lt;/div&gt;" style="edgeLabel;html=1;align=center;verticalAlign=middle;resizable=0;points=[];fontStyle=1" vertex="1" connectable="0" parent="2XioRxq6I9GtO7Yhc2Fz-35">
          <mxGeometry x="-0.0543" y="-1" relative="1" as="geometry">
            <mxPoint y="3" as="offset" />
          </mxGeometry>
        </mxCell>
        <object placeholders="1" c4Type="Relationship" id="2XioRxq6I9GtO7Yhc2Fz-39">
          <mxCell style="endArrow=blockThin;html=1;fontSize=10;fontColor=#404040;strokeWidth=1;endFill=1;strokeColor=#828282;elbow=vertical;metaEdit=1;endSize=14;startSize=14;jumpStyle=arc;jumpSize=16;rounded=0;edgeStyle=orthogonalEdgeStyle;exitX=0;exitY=0.75;exitDx=0;exitDy=0;exitPerimeter=0;entryX=0;entryY=0.75;entryDx=0;entryDy=0;entryPerimeter=0;" edge="1" parent="1" source="2XioRxq6I9GtO7Yhc2Fz-9" target="2XioRxq6I9GtO7Yhc2Fz-1">
            <mxGeometry width="240" relative="1" as="geometry">
              <mxPoint x="-370" y="1070" as="sourcePoint" />
              <mxPoint x="-410" y="550" as="targetPoint" />
              <Array as="points">
                <mxPoint x="-420" y="990" />
                <mxPoint x="-420" y="485" />
              </Array>
            </mxGeometry>
          </mxCell>
        </object>
        <mxCell id="2XioRxq6I9GtO7Yhc2Fz-40" value="&lt;span style=&quot;&quot;&gt;Уведомление для менеджера&lt;/span&gt;&lt;div style=&quot;&quot;&gt;о создании&lt;/div&gt;" style="edgeLabel;html=1;align=center;verticalAlign=middle;resizable=0;points=[];fontStyle=1" vertex="1" connectable="0" parent="2XioRxq6I9GtO7Yhc2Fz-39">
          <mxGeometry x="-0.6253" y="-2" relative="1" as="geometry">
            <mxPoint y="4" as="offset" />
          </mxGeometry>
        </mxCell>
        <object placeholders="1" c4Type="Relationship" id="2XioRxq6I9GtO7Yhc2Fz-41">
          <mxCell style="endArrow=blockThin;html=1;fontSize=10;fontColor=#404040;strokeWidth=1;endFill=1;strokeColor=#828282;elbow=vertical;metaEdit=1;endSize=14;startSize=14;jumpStyle=arc;jumpSize=16;rounded=0;edgeStyle=orthogonalEdgeStyle;entryX=0;entryY=0.75;entryDx=0;entryDy=0;entryPerimeter=0;exitX=0;exitY=0.5;exitDx=0;exitDy=0;exitPerimeter=0;" edge="1" parent="1" source="2XioRxq6I9GtO7Yhc2Fz-9" target="2XioRxq6I9GtO7Yhc2Fz-4">
            <mxGeometry width="240" relative="1" as="geometry">
              <mxPoint x="-200" y="920" as="sourcePoint" />
              <mxPoint y="610" as="targetPoint" />
              <Array as="points">
                <mxPoint x="-160" y="960" />
                <mxPoint x="-160" y="485" />
              </Array>
            </mxGeometry>
          </mxCell>
        </object>
        <mxCell id="2XioRxq6I9GtO7Yhc2Fz-42" value="&lt;span style=&quot;&quot;&gt;Уведомление для менеджера&lt;/span&gt;&lt;div&gt;&lt;span style=&quot;&quot;&gt;о&amp;nbsp;&lt;/span&gt;&lt;span style=&quot;&quot;&gt;назначении&amp;nbsp;&lt;/span&gt;&lt;span style=&quot;&quot;&gt;на поступление&lt;/span&gt;&lt;/div&gt;" style="edgeLabel;html=1;align=center;verticalAlign=middle;resizable=0;points=[];fontStyle=1" vertex="1" connectable="0" parent="2XioRxq6I9GtO7Yhc2Fz-41">
          <mxGeometry x="-0.6031" relative="1" as="geometry">
            <mxPoint y="-6" as="offset" />
          </mxGeometry>
        </mxCell>
        <object placeholders="1" c4Type="Relationship" id="2XioRxq6I9GtO7Yhc2Fz-43">
          <mxCell style="endArrow=blockThin;html=1;fontSize=10;fontColor=#404040;strokeWidth=1;endFill=1;strokeColor=#828282;elbow=vertical;metaEdit=1;endSize=14;startSize=14;jumpStyle=arc;jumpSize=16;rounded=0;edgeStyle=orthogonalEdgeStyle;exitX=0.5;exitY=1;exitDx=0;exitDy=0;exitPerimeter=0;entryX=0.5;entryY=0;entryDx=0;entryDy=0;entryPerimeter=0;" edge="1" parent="1" source="2XioRxq6I9GtO7Yhc2Fz-8" target="2XioRxq6I9GtO7Yhc2Fz-9">
            <mxGeometry width="240" relative="1" as="geometry">
              <mxPoint y="840" as="sourcePoint" />
              <mxPoint x="240" y="840" as="targetPoint" />
            </mxGeometry>
          </mxCell>
        </object>
        <mxCell id="2XioRxq6I9GtO7Yhc2Fz-44" value="&lt;span style=&quot;&quot;&gt;Отправляет уведомления&amp;nbsp;&lt;/span&gt;&lt;div style=&quot;&quot;&gt;с использованием&lt;/div&gt;" style="edgeLabel;html=1;align=center;verticalAlign=middle;resizable=0;points=[];fontStyle=1" vertex="1" connectable="0" parent="2XioRxq6I9GtO7Yhc2Fz-43">
          <mxGeometry x="-0.0147" relative="1" as="geometry">
            <mxPoint as="offset" />
          </mxGeometry>
        </mxCell>
        <object placeholders="1" c4Type="Relationship" id="2XioRxq6I9GtO7Yhc2Fz-45">
          <mxCell style="endArrow=blockThin;html=1;fontSize=10;fontColor=#404040;strokeWidth=1;endFill=1;strokeColor=#828282;elbow=vertical;metaEdit=1;endSize=14;startSize=14;jumpStyle=arc;jumpSize=16;rounded=0;edgeStyle=orthogonalEdgeStyle;exitX=0.5;exitY=1;exitDx=0;exitDy=0;exitPerimeter=0;entryX=1;entryY=0.75;entryDx=0;entryDy=0;entryPerimeter=0;" edge="1" parent="1" source="2XioRxq6I9GtO7Yhc2Fz-3" target="2XioRxq6I9GtO7Yhc2Fz-8">
            <mxGeometry width="240" relative="1" as="geometry">
              <mxPoint x="240" y="1090" as="sourcePoint" />
              <mxPoint x="480" y="1090" as="targetPoint" />
              <Array as="points">
                <mxPoint x="-3" y="1350" />
                <mxPoint x="430" y="1350" />
                <mxPoint x="430" y="750" />
              </Array>
            </mxGeometry>
          </mxCell>
        </object>
        <mxCell id="2XioRxq6I9GtO7Yhc2Fz-50" value="Взаимодействие с профилем,&lt;div&gt;загрузка документов,&lt;/div&gt;&lt;div&gt;просмотр и выбор доступных&amp;nbsp;&lt;/div&gt;&lt;div&gt;программ образования&lt;/div&gt;" style="edgeLabel;html=1;align=center;verticalAlign=middle;resizable=0;points=[];fontStyle=1" vertex="1" connectable="0" parent="2XioRxq6I9GtO7Yhc2Fz-45">
          <mxGeometry x="-0.7001" y="3" relative="1" as="geometry">
            <mxPoint x="41" y="5" as="offset" />
          </mxGeometry>
        </mxCell>
        <object placeholders="1" c4Type="Relationship" id="2XioRxq6I9GtO7Yhc2Fz-47">
          <mxCell style="endArrow=blockThin;html=1;fontSize=10;fontColor=#404040;strokeWidth=1;endFill=1;strokeColor=#828282;elbow=vertical;metaEdit=1;endSize=14;startSize=14;jumpStyle=arc;jumpSize=16;rounded=0;edgeStyle=orthogonalEdgeStyle;exitX=0.5;exitY=1;exitDx=0;exitDy=0;exitPerimeter=0;entryX=0;entryY=0.5;entryDx=0;entryDy=0;entryPerimeter=0;" edge="1" parent="1" source="2XioRxq6I9GtO7Yhc2Fz-1" target="2XioRxq6I9GtO7Yhc2Fz-8">
            <mxGeometry width="240" relative="1" as="geometry">
              <mxPoint x="-260" y="640" as="sourcePoint" />
              <mxPoint x="-20" y="640" as="targetPoint" />
            </mxGeometry>
          </mxCell>
        </object>
        <mxCell id="2XioRxq6I9GtO7Yhc2Fz-52" value="Просмотр списка менеджеров&lt;div&gt;и главных менеджеров,&lt;/div&gt;&lt;div&gt;назначение менеджера&lt;/div&gt;&lt;div&gt;на поступление&lt;/div&gt;" style="edgeLabel;html=1;align=center;verticalAlign=middle;resizable=0;points=[];fontStyle=1" vertex="1" connectable="0" parent="2XioRxq6I9GtO7Yhc2Fz-47">
          <mxGeometry x="-0.4992" y="-4" relative="1" as="geometry">
            <mxPoint as="offset" />
          </mxGeometry>
        </mxCell>
        <object placeholders="1" c4Type="Relationship" id="2XioRxq6I9GtO7Yhc2Fz-48">
          <mxCell style="endArrow=blockThin;html=1;fontSize=10;fontColor=#404040;strokeWidth=1;endFill=1;strokeColor=#828282;elbow=vertical;metaEdit=1;endSize=14;startSize=14;jumpStyle=arc;jumpSize=16;rounded=0;edgeStyle=orthogonalEdgeStyle;exitX=0.5;exitY=1;exitDx=0;exitDy=0;exitPerimeter=0;entryX=0.5;entryY=0;entryDx=0;entryDy=0;entryPerimeter=0;" edge="1" parent="1" source="2XioRxq6I9GtO7Yhc2Fz-4" target="2XioRxq6I9GtO7Yhc2Fz-8">
            <mxGeometry width="240" relative="1" as="geometry">
              <mxPoint x="70" y="600" as="sourcePoint" />
              <mxPoint x="310" y="600" as="targetPoint" />
            </mxGeometry>
          </mxCell>
        </object>
        <mxCell id="2XioRxq6I9GtO7Yhc2Fz-51" value="Взаимодействие с профилями&lt;div&gt;абитуриентов и их&lt;/div&gt;&lt;div&gt;заявлениями&lt;/div&gt;" style="edgeLabel;html=1;align=center;verticalAlign=middle;resizable=0;points=[];fontStyle=1" vertex="1" connectable="0" parent="2XioRxq6I9GtO7Yhc2Fz-48">
          <mxGeometry x="-0.3169" y="-1" relative="1" as="geometry">
            <mxPoint y="8" as="offset" />
          </mxGeometry>
        </mxCell>
        <object placeholders="1" c4Type="Relationship" id="2XioRxq6I9GtO7Yhc2Fz-49">
          <mxCell style="endArrow=blockThin;html=1;fontSize=10;fontColor=#404040;strokeWidth=1;endFill=1;strokeColor=#828282;elbow=vertical;metaEdit=1;endSize=14;startSize=14;jumpStyle=arc;jumpSize=16;rounded=0;edgeStyle=orthogonalEdgeStyle;exitX=0.5;exitY=1;exitDx=0;exitDy=0;exitPerimeter=0;entryX=1;entryY=0.25;entryDx=0;entryDy=0;entryPerimeter=0;" edge="1" parent="1" source="2XioRxq6I9GtO7Yhc2Fz-7" target="2XioRxq6I9GtO7Yhc2Fz-8">
            <mxGeometry width="240" relative="1" as="geometry">
              <mxPoint x="270" y="610" as="sourcePoint" />
              <mxPoint x="190" y="680" as="targetPoint" />
            </mxGeometry>
          </mxCell>
        </object>
        <mxCell id="2XioRxq6I9GtO7Yhc2Fz-53" value="Импорт справочников,&lt;div&gt;просмотр статуса импорта,&lt;/div&gt;&lt;div&gt;создание новых менеджеров&lt;/div&gt;" style="edgeLabel;html=1;align=center;verticalAlign=middle;resizable=0;points=[];fontStyle=1" vertex="1" connectable="0" parent="2XioRxq6I9GtO7Yhc2Fz-49">
          <mxGeometry x="-0.5022" relative="1" as="geometry">
            <mxPoint as="offset" />
          </mxGeometry>
        </mxCell>
        <object placeholders="1" c4Name="External directory system" c4Type="Software System" c4Description="Внешняя система-справочник" label="&lt;font style=&quot;font-size: 16px&quot;&gt;&lt;b&gt;%c4Name%&lt;/b&gt;&lt;/font&gt;&lt;div&gt;[%c4Type%]&lt;/div&gt;&lt;br&gt;&lt;div&gt;&lt;font style=&quot;font-size: 11px&quot;&gt;&lt;font color=&quot;#cccccc&quot;&gt;%c4Description%&lt;/font&gt;&lt;/div&gt;" id="2XioRxq6I9GtO7Yhc2Fz-55">
          <mxCell style="rounded=1;whiteSpace=wrap;html=1;labelBackgroundColor=none;fillColor=#8C8496;fontColor=#ffffff;align=center;arcSize=10;strokeColor=#736782;metaEdit=1;resizable=0;points=[[0.25,0,0],[0.5,0,0],[0.75,0,0],[1,0.25,0],[1,0.5,0],[1,0.75,0],[0.75,1,0],[0.5,1,0],[0.25,1,0],[0,0.75,0],[0,0.5,0],[0,0.25,0]];" vertex="1" parent="1">
            <mxGeometry x="170" y="900" width="240" height="120" as="geometry" />
          </mxCell>
        </object>
        <object placeholders="1" c4Type="Relationship" id="2XioRxq6I9GtO7Yhc2Fz-56">
          <mxCell style="endArrow=blockThin;html=1;fontSize=10;fontColor=#404040;strokeWidth=1;endFill=1;strokeColor=#828282;elbow=vertical;metaEdit=1;endSize=14;startSize=14;jumpStyle=arc;jumpSize=16;rounded=0;edgeStyle=orthogonalEdgeStyle;exitX=1;exitY=0.5;exitDx=0;exitDy=0;exitPerimeter=0;entryX=0.5;entryY=0;entryDx=0;entryDy=0;entryPerimeter=0;" edge="1" parent="1" source="2XioRxq6I9GtO7Yhc2Fz-8" target="2XioRxq6I9GtO7Yhc2Fz-55">
            <mxGeometry width="240" relative="1" as="geometry">
              <mxPoint x="150" y="790" as="sourcePoint" />
              <mxPoint x="390" y="790" as="targetPoint" />
            </mxGeometry>
          </mxCell>
        </object>
        <mxCell id="2XioRxq6I9GtO7Yhc2Fz-57" value="Запрашивает актуальные данные&lt;div&gt;о факультетах, программах,&lt;/div&gt;&lt;div&gt;уровнях образования и&lt;/div&gt;&lt;div&gt;типах документов&lt;/div&gt;" style="edgeLabel;html=1;align=center;verticalAlign=middle;resizable=0;points=[];fontStyle=1" vertex="1" connectable="0" parent="2XioRxq6I9GtO7Yhc2Fz-56">
          <mxGeometry x="0.5286" y="-1" relative="1" as="geometry">
            <mxPoint as="offset" />
          </mxGeometry>
        </mxCell>
      </root>
    </mxGraphModel>
  </diagram>
</mxfile>
